<svg width="17" height="17" viewBox="0 0 17 17" fill="none" xmlns="http://www.w3.org/2000/svg">
<path d="M15.4067 14.655L11.3947 10.643C12.3588 9.48559 12.8396 8.00102 12.737 6.49815C12.6344 4.99528 11.9564 3.58982 10.8439 2.57413C9.73147 1.55845 8.27027 1.01075 6.7643 1.04497C5.25832 1.07919 3.82351 1.69269 2.75834 2.75785C1.69318 3.82302 1.07968 5.25783 1.04546 6.76381C1.01124 8.26979 1.55894 9.73098 2.57462 10.8434C3.59031 11.9559 4.99577 12.6339 6.49864 12.7365C8.00151 12.8391 9.48608 12.3583 10.6435 11.3942L14.6555 15.4062L15.4067 14.655ZM2.12544 6.9062C2.12544 5.96056 2.40586 5.03616 2.93123 4.24988C3.4566 3.46361 4.20333 2.85079 5.07699 2.48891C5.95065 2.12702 6.912 2.03234 7.83947 2.21683C8.76694 2.40131 9.61888 2.85668 10.2875 3.52535C10.9562 4.19402 11.4116 5.04596 11.5961 5.97343C11.7806 6.9009 11.6859 7.86225 11.324 8.73591C10.9621 9.60957 10.3493 10.3563 9.56301 10.8817C8.77674 11.407 7.85233 11.6875 6.90669 11.6875C5.63906 11.686 4.42375 11.1819 3.52739 10.2855C2.63104 9.38915 2.12685 8.17384 2.12544 6.9062Z" fill="black"/>
</svg>
